<?xml version="1.0" standalone="no"?><!DOCTYPE svg PUBLIC "-//W3C//DTD SVG 1.1//EN" "http://www.w3.org/Graphics/SVG/1.1/DTD/svg11.dtd"><svg t="1609073816511" class="icon" viewBox="0 0 1024 1024" version="1.1" xmlns="http://www.w3.org/2000/svg" p-id="28811" data-spm-anchor-id="a313x.7781069.0.i122" width="18" height="18" xmlns:xlink="http://www.w3.org/1999/xlink"><defs><style type="text/css"></style></defs><path d="M888.0128 792.0128H199.9872V167.936a8.0384 8.0384 0 0 0-7.9872-7.9872H135.9872a8.0384 8.0384 0 0 0-7.9872 7.9872V856.064c0 4.4032 3.584 7.9872 7.9872 7.9872h752.0256c4.4032 0 7.9872-3.584 7.9872-7.9872v-56.0128a8.0384 8.0384 0 0 0-7.9872-7.9872z" p-id="28812" data-spm-anchor-id="a313x.7781069.0.i123" class=""></path><path d="M272.0256 728.0128H807.936c4.4032 0 7.9872-3.584 7.9872-8.0384V284.0064c0-7.168-8.704-10.752-13.6704-5.7344l-210.2784 210.3296-125.44-124.0064a8.0384 8.0384 0 0 0-11.264 0L266.24 554.1888a7.8848 7.8848 0 0 0-2.304 5.632v160.1536c0 4.4032 3.584 8.0384 8.0384 8.0384z" p-id="28813" data-spm-anchor-id="a313x.7781069.0.i121" class="selected" fill="#d81e06"></path></svg>