<?xml version="1.0" standalone="no"?><!DOCTYPE svg PUBLIC "-//W3C//DTD SVG 1.1//EN" "http://www.w3.org/Graphics/SVG/1.1/DTD/svg11.dtd"><svg t="1609235780315" class="icon" viewBox="0 0 1024 1024" version="1.1" xmlns="http://www.w3.org/2000/svg" p-id="44087" width="18" height="18" data-spm-anchor-id="a313x.7781069.0.i108" xmlns:xlink="http://www.w3.org/1999/xlink"><defs><style type="text/css"></style></defs><path d="M755.2 275.2L416 614.4 268.8 448c-25.6-25.6-64-25.6-89.6 0-25.6 25.6-25.6 64 0 89.6l185.6 211.2c12.8 12.8 32 19.2 44.8 19.2 19.2 0 32-6.4 44.8-19.2l384-384c25.6-25.6 25.6-64 0-89.6-19.2-25.6-64-25.6-83.2 0z" fill="#d81e06" p-id="44088" data-spm-anchor-id="a313x.7781069.0.i101" class=""></path><path d="M896 0H128C57.6 0 0 57.6 0 128v768c0 70.4 57.6 128 128 128h768c70.4 0 128-57.6 128-128V128c0-70.4-57.6-128-128-128z m64 896c0 38.4-25.6 64-64 64H128c-38.4 0-64-25.6-64-64V128c0-38.4 25.6-64 64-64h768c38.4 0 64 25.6 64 64v768z" fill="#2c2c2c" p-id="44089" data-spm-anchor-id="a313x.7781069.0.i112" class="selected"></path></svg>