<?xml version="1.0" standalone="no"?><!DOCTYPE svg PUBLIC "-//W3C//DTD SVG 1.1//EN" "http://www.w3.org/Graphics/SVG/1.1/DTD/svg11.dtd"><svg t="1609236181095" class="icon" viewBox="0 0 1024 1024" version="1.1" xmlns="http://www.w3.org/2000/svg" p-id="47601" data-spm-anchor-id="a313x.7781069.0.i130" width="18" height="18" xmlns:xlink="http://www.w3.org/1999/xlink"><defs><style type="text/css"></style></defs><path d="M962.925392 1001.252588H40.228908a39.789686 39.789686 0 0 1-28.306265-11.410278 38.619401 38.619401 0 0 1-11.556563-27.794266V122.880644a39.204543 39.204543 0 0 1 39.058258-39.350829h922.330769c22.235413 0 39.862829 17.334845 39.862829 39.350829V961.828616a37.595402 37.595402 0 0 1-10.898278 27.794266 38.692544 38.692544 0 0 1-27.867409 11.410277v0.146286zM81.188879 922.770358h841.873685v-760.685171H81.188879v760.685171z" p-id="47602" data-spm-anchor-id="a313x.7781069.0.i131" class="" fill="#2c2c2c"></path><path d="M285.037876 238.738847a38.838829 38.838829 0 0 1-28.452551-11.922278 41.252542 41.252542 0 0 1-11.48342-29.110836V40.960702A40.082257 40.082257 0 0 1 284.964734 0.000731a40.082257 40.082257 0 0 1 39.716543 40.959971v155.501603c0 22.966841-17.554273 42.203398-39.716543 42.203399z m433.151691 0a38.838829 38.838829 0 0 1-28.233123-11.922278 41.252542 41.252542 0 0 1-11.556563-29.110836V40.960702A40.082257 40.082257 0 0 1 718.26271 0.000731a40.082257 40.082257 0 0 1 39.789686 40.959971v155.501603a41.691399 41.691399 0 0 1-11.263992 29.769122 39.277686 39.277686 0 0 1-28.525694 12.434277z m244.735825 171.154163H40.228908a38.911972 38.911972 0 0 1-28.306265-11.849134 41.325685 41.325685 0 0 1-11.556563-29.183979 40.082257 40.082257 0 0 1 39.789686-40.886828h921.599341a40.082257 40.082257 0 0 1 39.862829 40.95997 40.228543 40.228543 0 0 1-10.898278 28.964551 37.887973 37.887973 0 0 1-27.867409 11.99542zM213.43107 633.124851h110.153065V519.607217H213.43107v113.444491z m244.808968-113.371348h110.006779v113.371348H458.313181v-113.371348h-0.073143z m236.470689 0h110.153064v113.371348H694.710727v-113.371348z m-481.279657 201.362142h110.153065v113.371348H213.43107V720.896217v0.146285z m244.808968 0h110.006779v113.371348H458.313181V720.896217l-0.073143 0.073142v0.073143z m236.470689 0h110.153064v113.371348H694.710727V720.896217v0.146285z" p-id="47603" data-spm-anchor-id="a313x.7781069.0.i129" class="selected" fill="#2c2c2c"></path></svg>