<?xml version="1.0" standalone="no"?><!DOCTYPE svg PUBLIC "-//W3C//DTD SVG 1.1//EN" "http://www.w3.org/Graphics/SVG/1.1/DTD/svg11.dtd"><svg t="1606899500247" class="icon" viewBox="0 0 1024 1024" version="1.1" xmlns="http://www.w3.org/2000/svg" p-id="34029" xmlns:xlink="http://www.w3.org/1999/xlink" width="200" height="200"><defs><style type="text/css"></style></defs><path d="M1011.776926 398.446877a46.419438 46.419438 0 0 0-36.521176-41.470307H972.781185c-43.859542-9.727603-75.602246-34.13194-99.921253-75.602246-22.015101-36.521175-29.268138-82.855283-14.676734-124.32559a47.102077 47.102077 0 0 0-14.591405-53.587145A457.70931 457.70931 0 0 0 677.795897 3.455006c-17.06597-7.253037-36.606505-2.389236-53.672475 14.676734-26.793573 34.13194-68.263879 51.197909-114.597988 51.197909-41.384977 0-80.380718-19.540535-114.512657-53.672475C375.472242-3.798032 355.846376-1.408796 341.340302 3.455006c-63.400078 26.878902-116.987223 58.536276-163.321331 97.532017-17.06597 12.202168-24.404337 34.13194-17.06597 53.672475 12.202168 46.334108 7.253037 90.19365-14.676734 129.189392-19.455206 34.13194-56.061711 60.925512-99.921253 73.12768-2.474566 0-2.474566 0-4.863802 2.474566-14.676734 7.253037-24.404337 19.455206-31.742703 36.521175v2.474566C2.580801 434.968052 0.020906 466.710756 0.020906 498.36813c0 31.742704 2.474566 68.263879 9.727603 97.532017a46.419438 46.419438 0 0 0 36.606505 41.470307H48.65892c43.944872 9.727603 75.602246 34.13194 100.006583 75.602246 21.929771 36.521175 29.268138 82.855283 14.591404 124.32559a47.102077 47.102077 0 0 0 14.676734 53.587146 447.981707 447.981707 0 0 0 168.185132 100.006583c2.474566 0 4.863801 2.389236 9.727603 2.389235h7.338367a55.805721 55.805721 0 0 0 38.995741-17.065969c26.878902-31.657374 68.263879-51.197909 114.597988-51.19791 41.470307 0 80.466048 19.540535 114.597987 53.672475 9.727603 9.727603 21.929771 17.06597 34.131939 17.06597 4.863801 0 12.202168 0 17.06597-2.474566 63.400078-26.793573 116.987223-58.450947 163.321331-97.532017 17.06597-9.727603 24.404337-34.13194 17.06597-53.587145-12.202168-46.334108-7.253037-90.19365 14.676734-129.189392 19.455206-34.13194 56.061711-61.010842 99.921253-73.21301 2.474566 0 2.474566 0 4.863802-2.389236 14.676734-7.338367 24.404337-19.540535 31.742704-36.606505v-2.389236c7.253037-36.606505 9.727603-68.263879 9.727602-100.006583-2.474566-34.13194-4.863801-68.263879-12.202168-99.921253zM509.525434 666.638592c-95.057452 0-170.659698-75.602246-170.659698-170.659698 0-95.142782 75.602246-170.659698 170.659698-170.659698 95.142782 0 170.659698 75.516916 170.659698 170.659698 0 95.057452-75.516916 170.659698-170.659698 170.659698z" fill="#2c2c2c" p-id="34030"></path></svg>