<?xml version="1.0" standalone="no"?><!DOCTYPE svg PUBLIC "-//W3C//DTD SVG 1.1//EN" "http://www.w3.org/Graphics/SVG/1.1/DTD/svg11.dtd"><svg t="1606899402186" class="icon" viewBox="0 0 1024 1024" version="1.1" xmlns="http://www.w3.org/2000/svg" p-id="31985" xmlns:xlink="http://www.w3.org/1999/xlink" width="200" height="200"><defs><style type="text/css"></style></defs><path d="M511.991787 1024a485.658517 485.658517 0 0 1-259.190148-74.728252 37.829863 37.829863 0 1 1 40.203619-63.851039 418.562342 418.562342 0 0 0 434.667828 0 37.829863 37.829863 0 0 1 39.722858 64.3318A485.98904 485.98904 0 0 1 511.991787 1024z m449.331031-449.331031a37.799815 37.799815 0 0 1-37.85991-37.829863 409.578125 409.578125 0 0 0-195.789822-350.474599A37.829863 37.829863 0 1 1 767.395944 122.032707a484.39652 484.39652 0 0 1 231.756737 414.656161 37.799815 37.799815 0 0 1-37.829863 37.829863z m-898.662062 0a37.73972 37.73972 0 0 1-37.829863-37.829863A486.199373 486.199373 0 0 1 245.710418 129.123929a37.920005 37.920005 0 1 1 41.615854 63.370278 410.599742 410.599742 0 0 0-186.835653 344.344899 37.799815 37.799815 0 0 1-37.829863 37.829863z m0 0" fill="#E95F5C" p-id="31986"></path><path d="M984.008717 890.618935a131.668355 131.668355 0 0 1-219.3471-133.381065l-95.971868-68.538457a202.039712 202.039712 0 0 1-314.17716 0.390618l-94.830062 67.667078a132.720019 132.720019 0 1 1-42.667518-62.558995l101.620807-72.474685a202.460378 202.460378 0 0 1 155.496061-260.932906v-99.156908a133.411113 133.411113 0 1 1 75.689773-0.570904v100.088382a200.958 200.958 0 0 1 39.993286 11.418069 203.331757 203.331757 0 0 1 125.538655 187.887317 201.048143 201.048143 0 0 1-10.366404 61.14676l102.161663 73.045589a132.209211 132.209211 0 0 1 176.859867 195.970107z m-850.345605-150.23774a56.72977 56.72977 0 1 0 40.143524 16.616294 56.72977 56.72977 0 0 0-40.203619-16.766531zM568.8117 134.953153A56.759818 56.759818 0 1 0 511.991787 191.682923a56.72977 56.72977 0 0 0 56.759818-56.880008z m33.533064 335.390729a127.702079 127.702079 0 1 0 37.409197 90.142644 127.702079 127.702079 0 0 0-37.469292-90.292881z m328.209365 286.653607a56.759818 56.759818 0 1 0 16.616294 40.143524 56.72977 56.72977 0 0 0-16.676389-40.293761z" fill="#82B6FB" p-id="31987"></path></svg>