<?xml version="1.0" standalone="no"?><!DOCTYPE svg PUBLIC "-//W3C//DTD SVG 1.1//EN" "http://www.w3.org/Graphics/SVG/1.1/DTD/svg11.dtd"><svg t="1608000070203" class="icon" viewBox="0 0 1024 1024" version="1.1" xmlns="http://www.w3.org/2000/svg" p-id="19963" width="32" height="32" xmlns:xlink="http://www.w3.org/1999/xlink"><defs><style type="text/css"></style></defs><path d="M640 128l0 256 256 0L896 128 640 128zM816 304l-96 0 0-96 96 0L816 304z" p-id="19964" data-spm-anchor-id="a313x.7781069.0.i78" class=""></path><path d="M128 464l128 0 0 96-128 0 0-96Z" p-id="19965"></path><path d="M800 464l96 0 0 96-96 0 0-96Z" p-id="19966"></path><path d="M464 816 464 896 560 896 560 832 704 832 704 736 464 736Z" p-id="19967"></path><path d="M464 128l96 0 0 256-96 0 0-256Z" p-id="19968"></path><path d="M800 656l96 0 0 240-96 0 0-240Z" p-id="19969" data-spm-anchor-id="a313x.7781069.0.i81" class="selected" fill="#13227a"></path><path d="M128 896l256 0 0-256L128 640 128 896zM208 720l96 0 0 96-96 0L208 720z" p-id="19970" data-spm-anchor-id="a313x.7781069.0.i79" class=""></path><path d="M384 128 128 128l0 256 256 0L384 128zM304 304l-96 0 0-96 96 0L304 304z" p-id="19971" data-spm-anchor-id="a313x.7781069.0.i80" class="selected" fill="#13227a"></path><path d="M560 464 464 464 368 464 368 560 464 560 464 656 560 656 800 656 800 560 560 560Z" p-id="19972" data-spm-anchor-id="a313x.7781069.0.i77" class="" fill="#2c2c2c"></path></svg>