<?xml version="1.0" standalone="no"?><!DOCTYPE svg PUBLIC "-//W3C//DTD SVG 1.1//EN" "http://www.w3.org/Graphics/SVG/1.1/DTD/svg11.dtd"><svg t="1609238885988" class="icon" viewBox="0 0 1024 1024" version="1.1" xmlns="http://www.w3.org/2000/svg" p-id="50492" width="18" height="18" xmlns:xlink="http://www.w3.org/1999/xlink"><defs><style type="text/css"></style></defs><path d="M0 0" p-id="50493"></path><path d="M754.003825 763.731806L568.011664 205.516389a42.757603 42.757603 0 0 0-81.032371 0L300.918865 763.731806a42.814492 42.814492 0 0 0 26.999412 53.998825c22.391422 7.509318 46.52364-8.396783 53.998826-30.685805L415.401836 682.665301h224.153152l33.484733 104.379525c5.905055 17.817564 22.55071 31.004382 40.516185 31.004382 4.448702 0 9.011182 0.261688 13.516773-1.194664 22.357289-7.588963 34.485975-30.799583 26.931146-53.122738zM559.853814 614.398771H443.903112l83.6265-250.845365L611.053711 614.398771h-51.199897z" p-id="50494" data-spm-anchor-id="a313x.7781069.0.i150" class="selected" fill="#d81e06"></path><path d="M989.864687 204.79959c34.133265 0.034133 34.133265 0.034133 34.133265-34.099131V28.808476C1023.997952 0 1023.997952 0 989.864687 0H853.331627c-34.133265 0-34.133265 0-34.133265 34.133265H204.79959c0-34.133265 0-34.133265-34.133265-34.133265H34.133265C0 0 0 0 0 34.133265v136.53306c0 34.133265 0 34.133265 34.133265 34.133265v614.398772c-34.133265 0.034133-34.133265 0.034133-34.133265 34.167398v136.53306c0 34.133265 0 34.133265 34.133265 34.099132h136.53306c34.133265 0 34.133265 0 34.133265-34.133265h614.398772c0 34.133265 0 34.133265 34.133265 34.133265h136.53306c34.133265 0 34.133265 0 34.133265-34.133265V853.331627c0-34.133265 0-34.133265-34.133265-34.133265V204.79959z m-68.26653 614.398772h-68.26653c-34.133265 0-34.133265 0-34.133265 34.133265v68.26653H204.79959v-68.198264c0-34.133265 0-34.133265-34.133265-34.201531H102.399795V204.79959h68.26653c34.133265 0 34.133265 0 34.133265-34.133265V102.399795h614.398772v68.300664c0 34.133265 0 34.133265 34.133265 34.099131h68.26653v614.398772z" p-id="50495" data-spm-anchor-id="a313x.7781069.0.i151" class=""></path></svg>