<?xml version="1.0" standalone="no"?><!DOCTYPE svg PUBLIC "-//W3C//DTD SVG 1.1//EN" "http://www.w3.org/Graphics/SVG/1.1/DTD/svg11.dtd"><svg t="1609234424087" class="icon" viewBox="0 0 1024 1024" version="1.1" xmlns="http://www.w3.org/2000/svg" p-id="11632" width="18" height="18" data-spm-anchor-id="a313x.7781069.0.i10" xmlns:xlink="http://www.w3.org/1999/xlink"><defs><style type="text/css"></style></defs><path d="M622.110118 140.980706V205.402353H923.708235v42.345412H622.110118v67.764706H923.708235v42.345411H622.110118v66.078118H923.708235v42.345412H622.110118v66.078117H923.708235v42.345412H622.110118v66.078118H923.708235v42.345412H622.110118v66.078117H923.708235v42.345412H622.110118v86.407529h386.258823V142.697412H622.110118V140.950588zM15.661176 118.964706v782.697412l559.043765 105.020235V13.944471L15.661176 118.964706z m404.901648 560.76047h-81.317648l-52.525176-232.086588-66.078118 232.086588H164.713412l-81.317647-340.510117h81.317647l32.195764 211.727059 54.211765-233.773177h84.690824l45.748706 255.819294 49.121882-255.819294H512L420.532706 679.755294z" p-id="11633" fill="#13227a"></path></svg>